<svg viewBox="0 0 1180 680" xmlns="http://www.w3.org/2000/svg">
<rect x="0" y="0" width="1180" height="680" fill="#FFFFFF"/>
<defs><marker id="ar" markerWidth="10" markerHeight="10" refX="8" refY="3" orient="auto" markerUnits="strokeWidth"><path d="M0,0 L8,3 L0,6 Z" fill="#2E5496"/></marker><marker id="aro" markerWidth="10" markerHeight="10" refX="8" refY="3" orient="auto" markerUnits="strokeWidth"><path d="M0,0 L8,3 L0,6 Z" fill="#C55A11"/></marker></defs>
<rect x="0" y="0" width="1180" height="52" fill="#1F3864"/>
<text x="590.0" y="24" text-anchor="middle" font-family="Arial" font-size="18" font-weight="bold" fill="#FFFFFF">Fluxo de Integração — CVCRM ↔ Make / N8N</text>
<text x="590.0" y="42" text-anchor="middle" font-family="Arial" font-size="11" fill="#D9E1F2">Reservas + Portal do Cliente · dois workflows automatizados (low-code)</text>
<rect x="20" y="300" width="120" height="80" rx="8" fill="#2E5496" stroke="#1F3864" stroke-width="1.5"/><text x="80.0" y="336.0" text-anchor="middle" font-family="Arial" font-size="12.5" font-weight="bold" fill="#FFFFFF">CVCRM</text><text x="80.0" y="353.0" text-anchor="middle" font-family="Arial" font-size="10" fill="#FFFFFF">APIs REST v1/v3</text>
<text x="80" y="398" text-anchor="middle" font-family="Arial" font-size="9" fill="#555">Base + Token</text>
<rect x="160" y="76" width="1000" height="200" rx="10" fill="#FAFBFF" stroke="#BFBFBF" stroke-dasharray="4 3"/>
<text x="172" y="94" font-family="Arial" font-size="13" font-weight="bold" fill="#1F3864">WORKFLOW A — Reservas (CV → destino)</text>
<rect x="166.22222222222223" y="112" width="118" height="56" rx="8" fill="#1F3864" stroke="#2E5496" stroke-width="1.5"/><text x="225.22222222222223" y="136.0" text-anchor="middle" font-family="Arial" font-size="12.5" font-weight="bold" fill="#FFFFFF">Schedule</text><text x="225.22222222222223" y="153.0" text-anchor="middle" font-family="Arial" font-size="10" fill="#FFFFFF">a cada 15 min</text>
<rect x="290.44444444444446" y="112" width="118" height="56" rx="8" fill="#FFFFFF" stroke="#2E5496" stroke-width="1.5"/><text x="349.44444444444446" y="136.0" text-anchor="middle" font-family="Arial" font-size="12.5" font-weight="bold" fill="#222222">HTTP GET</text><text x="349.44444444444446" y="153.0" text-anchor="middle" font-family="Arial" font-size="10" fill="#222222">reservas (v1)</text>
<line x1="286.22222222222223" y1="140.0" x2="288.44444444444446" y2="140.0" stroke="#2E5496" stroke-width="2" marker-end="url(#ar)"/>
<rect x="414.6666666666667" y="112" width="118" height="56" rx="8" fill="#FFFFFF" stroke="#2E5496" stroke-width="1.5"/><text x="473.6666666666667" y="136.0" text-anchor="middle" font-family="Arial" font-size="12.5" font-weight="bold" fill="#222222">Loop/Batch</text><text x="473.6666666666667" y="153.0" text-anchor="middle" font-family="Arial" font-size="10" fill="#222222">rate limit 200/min</text>
<line x1="410.44444444444446" y1="140.0" x2="412.6666666666667" y2="140.0" stroke="#2E5496" stroke-width="2" marker-end="url(#ar)"/>
<rect x="538.8888888888889" y="112" width="118" height="56" rx="8" fill="#FFFFFF" stroke="#2E5496" stroke-width="1.5"/><text x="597.8888888888889" y="136.0" text-anchor="middle" font-family="Arial" font-size="12.5" font-weight="bold" fill="#222222">Map</text><text x="597.8888888888889" y="153.0" text-anchor="middle" font-family="Arial" font-size="10" fill="#222222">TTALK / JSON Schema</text>
<line x1="534.6666666666667" y1="140.0" x2="536.8888888888889" y2="140.0" stroke="#2E5496" stroke-width="2" marker-end="url(#ar)"/>
<rect x="663.1111111111111" y="112" width="118" height="56" rx="8" fill="#FFFFFF" stroke="#2E5496" stroke-width="1.5"/><text x="722.1111111111111" y="136.0" text-anchor="middle" font-family="Arial" font-size="12.5" font-weight="bold" fill="#222222">Dedup</text><text x="722.1111111111111" y="153.0" text-anchor="middle" font-family="Arial" font-size="10" fill="#222222">controle de IDs</text>
<line x1="658.8888888888889" y1="140.0" x2="661.1111111111111" y2="140.0" stroke="#2E5496" stroke-width="2" marker-end="url(#ar)"/>
<rect x="787.3333333333333" y="112" width="118" height="56" rx="8" fill="#FFFFFF" stroke="#2E5496" stroke-width="1.5"/><text x="846.3333333333333" y="136.0" text-anchor="middle" font-family="Arial" font-size="12.5" font-weight="bold" fill="#222222">HTTP POST</text><text x="846.3333333333333" y="153.0" text-anchor="middle" font-family="Arial" font-size="10" fill="#222222">destino (ERP)</text>
<line x1="783.1111111111111" y1="140.0" x2="785.3333333333333" y2="140.0" stroke="#2E5496" stroke-width="2" marker-end="url(#ar)"/>
<rect x="911.5555555555554" y="112" width="118" height="56" rx="8" fill="#FFFFFF" stroke="#2E5496" stroke-width="1.5"/><text x="970.5555555555554" y="136.0" text-anchor="middle" font-family="Arial" font-size="12.5" font-weight="bold" fill="#222222">Error/Retry</text><text x="970.5555555555554" y="153.0" text-anchor="middle" font-family="Arial" font-size="10" fill="#222222">backoff + alerta</text>
<line x1="907.3333333333333" y1="140.0" x2="909.5555555555554" y2="140.0" stroke="#2E5496" stroke-width="2" marker-end="url(#ar)"/>
<rect x="1035.7777777777776" y="112" width="118" height="56" rx="8" fill="#FFFFFF" stroke="#2E5496" stroke-width="1.5"/><text x="1094.7777777777776" y="136.0" text-anchor="middle" font-family="Arial" font-size="12.5" font-weight="bold" fill="#222222">Log</text><text x="1094.7777777777776" y="153.0" text-anchor="middle" font-family="Arial" font-size="10" fill="#222222">CVIO + Postgres</text>
<line x1="1031.5555555555554" y1="140.0" x2="1033.7777777777776" y2="140.0" stroke="#2E5496" stroke-width="2" marker-end="url(#ar)"/>
<line x1="140" y1="320" x2="164.22222222222223" y2="140.0" stroke="#2E5496" stroke-width="2" marker-end="url(#ar)"/>
<rect x="160" y="326" width="1000" height="200" rx="10" fill="#FFF9F4" stroke="#BFBFBF" stroke-dasharray="4 3"/>
<text x="172" y="344" font-family="Arial" font-size="13" font-weight="bold" fill="#C55A11">WORKFLOW B — Portal do Cliente (CV → portal)</text>
<rect x="169.5" y="362" width="132" height="56" rx="8" fill="#C55A11" stroke="#C55A11" stroke-width="1.5"/><text x="235.5" y="386.0" text-anchor="middle" font-family="Arial" font-size="12.5" font-weight="bold" fill="#FFFFFF">Schedule</text><text x="235.5" y="403.0" text-anchor="middle" font-family="Arial" font-size="10" fill="#FFFFFF">1x / hora</text>
<rect x="311.0" y="362" width="132" height="56" rx="8" fill="#FFFFFF" stroke="#C55A11" stroke-width="1.5"/><text x="377.0" y="386.0" text-anchor="middle" font-family="Arial" font-size="12.5" font-weight="bold" fill="#222222">HTTP GET</text><text x="377.0" y="403.0" text-anchor="middle" font-family="Arial" font-size="10" fill="#222222">pessoas (v3 Bearer)</text>
<line x1="303.5" y1="390.0" x2="309.0" y2="390.0" stroke="#C55A11" stroke-width="2" marker-end="url(#ar)"/>
<rect x="452.5" y="362" width="132" height="56" rx="8" fill="#FFFFFF" stroke="#C55A11" stroke-width="1.5"/><text x="518.5" y="386.0" text-anchor="middle" font-family="Arial" font-size="12.5" font-weight="bold" fill="#222222">HTTP GET</text><text x="518.5" y="403.0" text-anchor="middle" font-family="Arial" font-size="10" fill="#222222">financeiro/boletos</text>
<line x1="445.0" y1="390.0" x2="450.5" y2="390.0" stroke="#C55A11" stroke-width="2" marker-end="url(#ar)"/>
<rect x="594.0" y="362" width="132" height="56" rx="8" fill="#FFFFFF" stroke="#C55A11" stroke-width="1.5"/><text x="660.0" y="386.0" text-anchor="middle" font-family="Arial" font-size="12.5" font-weight="bold" fill="#222222">Map/Merge</text><text x="660.0" y="403.0" text-anchor="middle" font-family="Arial" font-size="10" fill="#222222">normaliza dados</text>
<line x1="586.5" y1="390.0" x2="592.0" y2="390.0" stroke="#C55A11" stroke-width="2" marker-end="url(#ar)"/>
<rect x="735.5" y="362" width="132" height="56" rx="8" fill="#FFFFFF" stroke="#C55A11" stroke-width="1.5"/><text x="801.5" y="386.0" text-anchor="middle" font-family="Arial" font-size="12.5" font-weight="bold" fill="#222222">Upsert</text><text x="801.5" y="403.0" text-anchor="middle" font-family="Arial" font-size="10" fill="#222222">portal do cliente</text>
<line x1="728.0" y1="390.0" x2="733.5" y2="390.0" stroke="#C55A11" stroke-width="2" marker-end="url(#ar)"/>
<rect x="877.0" y="362" width="132" height="56" rx="8" fill="#FFFFFF" stroke="#C55A11" stroke-width="1.5"/><text x="943.0" y="386.0" text-anchor="middle" font-family="Arial" font-size="12.5" font-weight="bold" fill="#222222">Error/Retry</text><text x="943.0" y="403.0" text-anchor="middle" font-family="Arial" font-size="10" fill="#222222">reprocessa página</text>
<line x1="869.5" y1="390.0" x2="875.0" y2="390.0" stroke="#C55A11" stroke-width="2" marker-end="url(#ar)"/>
<rect x="1018.5" y="362" width="132" height="56" rx="8" fill="#FFFFFF" stroke="#C55A11" stroke-width="1.5"/><text x="1084.5" y="386.0" text-anchor="middle" font-family="Arial" font-size="12.5" font-weight="bold" fill="#222222">Log</text><text x="1084.5" y="403.0" text-anchor="middle" font-family="Arial" font-size="10" fill="#222222">CVIO + Postgres</text>
<line x1="1011.0" y1="390.0" x2="1016.5" y2="390.0" stroke="#C55A11" stroke-width="2" marker-end="url(#ar)"/>
<line x1="140" y1="360" x2="167.5" y2="390.0" stroke="#C55A11" stroke-width="2" marker-end="url(#ar)"/>
<rect x="1030" y="202" width="130" height="44" rx="8" fill="#548235" stroke="#385723" stroke-width="1.5"/><text x="1095.0" y="220.0" text-anchor="middle" font-family="Arial" font-size="12.5" font-weight="bold" fill="#FFFFFF">Sistema destino</text><text x="1095.0" y="237.0" text-anchor="middle" font-family="Arial" font-size="10" fill="#FFFFFF">ERP / integração</text>
<rect x="1030" y="452" width="130" height="44" rx="8" fill="#548235" stroke="#385723" stroke-width="1.5"/><text x="1095.0" y="470.0" text-anchor="middle" font-family="Arial" font-size="12.5" font-weight="bold" fill="#FFFFFF">Portal do Cliente</text><text x="1095.0" y="487.0" text-anchor="middle" font-family="Arial" font-size="10" fill="#FFFFFF">dados sincronizados</text>
<line x1="1153.7777777777776" y1="168" x2="1095" y2="202" stroke="#2E5496" stroke-width="2" marker-end="url(#ar)"/>
<line x1="961.5" y1="418" x2="1095" y2="452" stroke="#C55A11" stroke-width="2" marker-end="url(#ar)"/>
<rect x="20" y="640" width="16" height="12" fill="#1F3864"/><text x="42" y="651" font-family="Arial" font-size="10" fill="#222222">Gatilho (Schedule/Webhook)</text>
<rect x="220" y="640" width="16" height="12" fill="#FFFFFF" stroke="#2E5496"/><text x="242" y="651" font-family="Arial" font-size="10" fill="#222222">Nó de processamento (HTTP/Map/Log)</text>
<rect x="500" y="640" width="16" height="12" fill="#548235"/><text x="522" y="651" font-family="Arial" font-size="10" fill="#222222">Sistema de destino</text>
<text x="1160" y="651" text-anchor="end" font-family="Arial" font-size="9" fill="#888">Rate limit 200 req/min · rastreio via CVIO (30 dias) · autenticação v1/v3</text>
</svg>